<svg xmlns="http://www.w3.org/2000/svg" viewBox="0 0 512 512">
  <rect width="512" height="512" rx="96" fill="#105570"/>
  <rect x="32" y="32" width="448" height="448" rx="72" fill="#187097"/>
  <!-- Écran stylisé -->
  <rect x="96" y="130" width="320" height="210" rx="18" fill="none" stroke="white" stroke-width="22"/>
  <rect x="130" y="164" width="252" height="142" rx="8" fill="rgba(255,255,255,0.15)"/>
  <!-- Pied de l'écran -->
  <rect x="204" y="340" width="104" height="22" rx="4" fill="rgba(255,255,255,0.5)"/>
  <rect x="176" y="358" width="160" height="14" rx="7" fill="rgba(255,255,255,0.35)"/>
  <!-- Cases à cocher stylisées -->
  <rect x="152" y="182" width="28" height="28" rx="6" fill="white"/>
  <polyline points="157,196 165,206 178,186" stroke="#187097" stroke-width="5" stroke-linecap="round" stroke-linejoin="round" fill="none"/>
  <rect x="152" y="224" width="28" height="28" rx="6" fill="rgba(255,255,255,0.4)"/>
  <rect x="152" y="266" width="28" height="28" rx="6" fill="white"/>
  <polyline points="157,280 165,290 178,270" stroke="#187097" stroke-width="5" stroke-linecap="round" stroke-linejoin="round" fill="none"/>
  <!-- Lignes de texte -->
  <rect x="198" y="188" width="162" height="10" rx="5" fill="rgba(255,255,255,0.8)"/>
  <rect x="198" y="230" width="120" height="10" rx="5" fill="rgba(255,255,255,0.4)"/>
  <rect x="198" y="272" width="144" height="10" rx="5" fill="rgba(255,255,255,0.8)"/>
  <!-- Label CD79 -->
  <text x="256" y="468" text-anchor="middle" font-family="Arial,Helvetica,sans-serif" font-size="44" font-weight="bold" fill="rgba(255,255,255,0.9)" letter-spacing="2">CD79</text>
</svg>
